<svg id="Layer_1" data-name="Layer 1" xmlns="http://www.w3.org/2000/svg" xmlns:xlink="http://www.w3.org/1999/xlink" viewBox="0 0 69.28 73.71"><defs><style>.cls-1{opacity:0.5;fill:url(#radial-gradient);}.cls-2{fill:#0f4b81;}.cls-3{fill:#fbbc05;}</style><radialGradient id="radial-gradient" cx="41.5" cy="345.27" r="29.8" gradientTransform="translate(-6.86 47.16) scale(1 0.07)" gradientUnits="userSpaceOnUse"><stop offset="0" stop-color="#545454" stop-opacity="0.7"/><stop offset="0.26" stop-color="#606060" stop-opacity="0.65"/><stop offset="0.52" stop-color="#848484" stop-opacity="0.51"/><stop offset="0.79" stop-color="#bfbfbf" stop-opacity="0.26"/><stop offset="1" stop-color="#fff" stop-opacity="0"/></radialGradient></defs><title>airlines</title><ellipse class="cls-1" cx="34.64" cy="70.21" rx="32.87" ry="3.51"/><path id="Shape" class="cls-2" d="M16.68,78.09h5.21a3.11,3.11,0,0,0,2.32-1H50.37a8.32,8.32,0,0,0,4.34-1.22l19.55-11.9a3.91,3.91,0,0,0,1.8-2.6,3.79,3.79,0,0,0-.65-3l-.06-.09A3.91,3.91,0,0,0,71,56.89l-19.3,6.44a3.06,3.06,0,0,1-1,.16h-.6a4.83,4.83,0,0,0-.39-4.11l-.1-.15a6.29,6.29,0,0,0-5.36-3H38.79a8.47,8.47,0,0,1-5.29-1.85A10.21,10.21,0,0,0,26.9,52H24.83a3.14,3.14,0,0,0-2.94-2.09H16.68a3.13,3.13,0,0,0-3.13,3.13V75a3.13,3.13,0,0,0,3.13,3.13ZM32.2,56a10.6,10.6,0,0,0,6.59,2.31h5.46a4.2,4.2,0,0,1,3.58,2l.09.16a2.72,2.72,0,0,1-.16,3H41.43a10.33,10.33,0,0,0-5.79,1.75l-.76.51A1,1,0,0,0,36,67.48L36.8,67a7.76,7.76,0,0,1,4.63-1.4H50.7a5.42,5.42,0,0,0,1.65-.26l19.31-6.44a1.78,1.78,0,0,1,2,.55l.06.09A1.79,1.79,0,0,1,74,60.94a1.84,1.84,0,0,1-.84,1.21L53.63,74.05a6.33,6.33,0,0,1-3.26.91H25V54.1H26.9A8.45,8.45,0,0,1,32.2,56ZM15.64,53.05a1,1,0,0,1,1-1h5.21a1,1,0,0,1,1.05,1V75a1,1,0,0,1-1.05,1H16.68a1,1,0,0,1-1-1Z" transform="translate(-6.86 -17.14)"/><path class="cls-3" d="M18.77,30.7A6.25,6.25,0,0,0,25,37H35.7L34.47,39a2.08,2.08,0,0,0,1.79,3.16h5.05a2.06,2.06,0,0,0,1.4-.54L47.92,37H71.65a4.48,4.48,0,0,0,2.61-8.13h0l-5.05-3.6a4.21,4.21,0,0,0-2.42-.79H50.25l-7.54-6.76a2.06,2.06,0,0,0-1.39-.54H36.26a2.09,2.09,0,0,0-1.79,3.16L37,24.44H26.82l-1.61-4.85a2.1,2.1,0,0,0-2-1.4H20.85a2.08,2.08,0,0,0-2.08,2.08ZM68,26.93l3.85,2.73H64.66a1,1,0,0,1-1-1V26.53h3.17a2.08,2.08,0,0,1,1.21.39Zm-31.74-7.7h5.06l5.81,5.21H39.39Zm-15.41,1h2.38l1.61,4.86a2.1,2.1,0,0,0,2,1.4H61.53v2.09a3.13,3.13,0,0,0,3.13,3.13h9.27a2.38,2.38,0,0,1-2.28,3.13H50.25l3.66-3.29A1,1,0,1,0,52.52,30L41.31,40.09H36.26l5.31-8.85a1,1,0,0,0-.37-1.41,1,1,0,0,0-1.42.34L37,34.88H25a4.18,4.18,0,0,1-4.17-4.18Z" transform="translate(-6.86 -17.14)"/><path class="cls-2" d="M30.24,28.62h-1a1,1,0,1,0,0,2.08h1a1,1,0,1,0,0-2.08Z" transform="translate(-6.86 -17.14)"/><path class="cls-2" d="M35.46,28.62H34.41a1,1,0,0,0,0,2.08h1.05a1,1,0,1,0,0-2.08Z" transform="translate(-6.86 -17.14)"/><path class="cls-2" d="M46.93,28.62h-1a1,1,0,1,0,0,2.08h1a1,1,0,1,0,0-2.08Z" transform="translate(-6.86 -17.14)"/><path class="cls-2" d="M58.41,28.62h-1a1,1,0,0,0,0,2.08h1a1,1,0,1,0,0-2.08Z" transform="translate(-6.86 -17.14)"/><path class="cls-3" d="M16.5,32.66H11.81c-.23.07-.38.49-.34.92a.74.74,0,0,0,.34.64H16.5c.23,0,.44-.28.46-.72s-.15-.82-.38-.86H16.5Z" transform="translate(-6.86 -17.14)"/><path class="cls-3" d="M13.56,35.42H7.32a.74.74,0,0,0-.45.85.66.66,0,0,0,.45.58h6.24c.31,0,.59-.25.62-.65a.71.71,0,0,0-.51-.8h-.11Z" transform="translate(-6.86 -17.14)"/></svg>