<svg id="Layer_1" data-name="Layer 1" xmlns="http://www.w3.org/2000/svg" xmlns:xlink="http://www.w3.org/1999/xlink" viewBox="0 0 76.89 83.46"><defs><style>.cls-1{opacity:0.5;fill:url(#radial-gradient);}.cls-2{fill:#0f4b81;}.cls-3{fill:#fbbc05;}</style><radialGradient id="radial-gradient" cx="45" cy="91.78" r="29.8" gradientTransform="translate(-8.55 73.83) scale(1 0.07)" gradientUnits="userSpaceOnUse"><stop offset="0" stop-color="#545454" stop-opacity="0.7"/><stop offset="0.26" stop-color="#606060" stop-opacity="0.65"/><stop offset="0.52" stop-color="#848484" stop-opacity="0.51"/><stop offset="0.79" stop-color="#bfbfbf" stop-opacity="0.26"/><stop offset="1" stop-color="#fff" stop-opacity="0"/></radialGradient></defs><title>all-flights</title><ellipse class="cls-1" cx="36.45" cy="79.96" rx="32.87" ry="3.51"/><path class="cls-2" d="M44.63,68.87A26.93,26.93,0,1,1,71.57,41.94h0A26.94,26.94,0,0,1,44.63,68.87Zm0-52.19A25.27,25.27,0,1,0,69.9,42h0A25.29,25.29,0,0,0,44.63,16.68Z" transform="translate(-8.55 -5.66)"/><path class="cls-2" d="M44.63,68.87c-7.78,0-13.87-11.83-13.87-26.93s6.09-26.89,13.87-26.89,13.9,11.79,13.9,26.89S52.43,68.87,44.63,68.87Zm0-52.19c-6.61,0-12.2,11.61-12.2,25.26S38,67.2,44.63,67.2,56.82,55.6,56.82,41.94,51.26,16.68,44.63,16.68Z" transform="translate(-8.55 -5.66)"/><path class="cls-2" d="M24.3,57.8c5.1-3,12.49-4.73,20.33-4.73s15,1.68,20.15,4.6l-.9,1.44C59,56.33,52.05,54.74,44.61,54.74S30,56.37,25.14,59.2Z" transform="translate(-8.55 -5.66)"/><path class="cls-2" d="M44.63,30.82c-7.72,0-15-1.68-20.12-4.61l.89-1.43c4.84,2.77,11.84,4.37,19.27,4.37s14.62-1.63,19.46-4.46l.9,1.42C59.88,29.1,52.5,30.82,44.63,30.82Z" transform="translate(-8.55 -5.66)"/><rect class="cls-2" x="10.41" y="35.43" width="51.35" height="1.67"/><rect class="cls-2" x="35.25" y="10.59" width="1.67" height="51.35"/><path class="cls-3" d="M43.44,78V75.52h1.25a34.7,34.7,0,0,0,4.78-.34L50.7,75l.36,2.48-1.24.17A38.23,38.23,0,0,1,44.7,78Zm-2.68-.19-1.24-.17a37.45,37.45,0,0,1-5-1l-1.2-.35.7-2.4,1.2.35a35.47,35.47,0,0,0,4.66,1l1.24.17ZM53.61,77l-.7-2.4,1.2-.35a35.2,35.2,0,0,0,4.46-1.68L59.72,72l1,2.27-1.16.57a35.73,35.73,0,0,1-4.82,1.79ZM30.86,75.31l-1.17-.47a35.39,35.39,0,0,1-4.53-2.46l-1.05-.68,1.4-2.15,1,.68a35.7,35.7,0,0,0,4.21,2.29l1.14.52ZM63.14,73l-1.35-2.11,1.05-.68a32.91,32.91,0,0,0,3.8-2.87l1-.82,1.62,1.89-.94.82a36.28,36.28,0,0,1-4.12,3.09ZM22,70.06l-.95-.81a40.45,40.45,0,0,1-3.65-3.64l-.82-.9,1.85-1.65.8.9a34.89,34.89,0,0,0,3.39,3.38l.94.82ZM71.1,66.49l-1.84-1.62.83-1A35.72,35.72,0,0,0,73,60.09L73.64,59l2.1,1.35L75,61.46a37.3,37.3,0,0,1-3.08,4.11ZM15,62.55l-.68-1A36.56,36.56,0,0,1,11.83,57l-.52-1.15,2.28-1,.52,1.14a34.32,34.32,0,0,0,2.31,4.2l.67,1Zm62-4.46L74.67,57l.52-1.13a33.73,33.73,0,0,0,1.68-4.46l.35-1.21,2.41.71-.36,1.2a35.86,35.86,0,0,1-1.79,4.83ZM10.42,53.43l-.36-1.2a38,38,0,0,1-1.13-5L8.75,46l2.48-.4.19,1.24a33.8,33.8,0,0,0,1,4.67l.35,1.21Zm69.79-5.06L77.73,48l.18-1.24a35,35,0,0,0,.33-4.8V40.55h2.51v1.39a35.21,35.21,0,0,1-.37,5.13ZM8.55,43.27V41.94a37,37,0,0,1,.35-5l.18-1.24,2.48.34-.18,1.24a35.27,35.27,0,0,0-.32,4.71V43.2Zm69.49-5L77.86,37a32.63,32.63,0,0,0-1-4.66l-.36-1.25,2.4-.71.36,1.21a35.68,35.68,0,0,1,1.11,5l.18,1.24ZM12,33.79l-2.41-.7.35-1.2a35,35,0,0,1,1.79-4.83l.51-1.14,2.28,1L14,28.1a33.64,33.64,0,0,0-1.66,4.46Zm3.65-8.92-2.13-1.31.67-1.06a36.19,36.19,0,0,1,3.08-4.12l.82-.95L20,19.07l-.81.94a32.42,32.42,0,0,0-2.86,3.84Zm6-7.46L20,15.52l.95-.83a35.19,35.19,0,0,1,4.1-3.09l1.06-.68L27.49,13l-1.09.68a30.74,30.74,0,0,0-3.83,2.89Zm7.83-5.49L28.42,9.7l1.13-.53a34.38,34.38,0,0,1,4.82-1.78L35.57,7l.73,2.39-1.2.36a32.94,32.94,0,0,0-4.46,1.69Zm9-3-.36-2.48,1.24-.18a36.66,36.66,0,0,1,5.13-.37h1.25v2.5H44.53a31.32,31.32,0,0,0-4.74.36Z" transform="translate(-8.55 -5.66)"/><path class="cls-2" d="M74.59,28.54a3.71,3.71,0,0,1-2.44-.89L51.21,9a1.9,1.9,0,0,1,1.26-3.32h2.68A8.41,8.41,0,0,1,60.3,7.37L66,11.73a3.33,3.33,0,0,0,1.85.69L78.32,13a5.49,5.49,0,0,1,2.5.79l1.79,1a1.54,1.54,0,0,1-.43,2.81l-8.85,2.11,2.47,1.78a.79.79,0,0,0,.51.15l7.47-.51a1.43,1.43,0,0,1,1.65,1.16,1.46,1.46,0,0,1-.76,1.52l-8.34,4.38A3.6,3.6,0,0,1,74.59,28.54ZM52.28,7.74l21,18.64a2,2,0,0,0,2.24.26l7.22-3.81-6.31.44a2.51,2.51,0,0,1-1.62-.45l-3-2.16a1.39,1.39,0,0,1,.49-2.48L81.41,16,80,15.11a3.78,3.78,0,0,0-1.79-.54L67.69,14a5,5,0,0,1-2.78-1L59.25,8.66A6.62,6.62,0,0,0,55.1,7.27H52.49a.26.26,0,0,0-.17.45Z" transform="translate(-8.55 -5.66)"/></svg>