<svg id="Layer_1" data-name="Layer 1" xmlns="http://www.w3.org/2000/svg" xmlns:xlink="http://www.w3.org/1999/xlink" viewBox="0 0 66.15 86.6"><defs><style>.cls-1{opacity:0.5;fill:url(#radial-gradient);}.cls-2{fill:#0f4b81;}.cls-3{fill:#fff;}.cls-4{fill:#fbbc05;}</style><radialGradient id="radial-gradient" cx="45" cy="91.78" r="29.8" gradientTransform="translate(-11.92 76.96) scale(1 0.07)" gradientUnits="userSpaceOnUse"><stop offset="0" stop-color="#545454" stop-opacity="0.7"/><stop offset="0.26" stop-color="#606060" stop-opacity="0.65"/><stop offset="0.52" stop-color="#848484" stop-opacity="0.51"/><stop offset="0.79" stop-color="#bfbfbf" stop-opacity="0.26"/><stop offset="1" stop-color="#fff" stop-opacity="0"/></radialGradient></defs><title>cheap-flights</title><ellipse class="cls-1" cx="33.08" cy="83.09" rx="32.87" ry="3.51"/><path class="cls-2" d="M64.32,27.52h.75v39A2.51,2.51,0,0,1,62.58,69H27.44a2.51,2.51,0,0,1-2.51-2.49v-59A2.53,2.53,0,0,1,27.44,5H32l3.21,3.43a5,5,0,0,0,3.66,1.59H51.21a5,5,0,0,0,3.61-1.59L58,5h4.52a2.53,2.53,0,0,1,2.51,2.51V36h2.5V7.54a5,5,0,0,0-5-5H27.44a5,5,0,0,0-5,5h0V72.75a5,5,0,0,0,5,5H62.56a5,5,0,0,0,5-5h0V27.52M54.63,5,53,6.74a2.52,2.52,0,0,1-1.8.79H38.79A2.52,2.52,0,0,1,37,6.74L35.38,5ZM65.05,72.75a2.52,2.52,0,0,1-2.51,2.51H27.44a2.52,2.52,0,0,1-2.51-2.51v-1.9a4.94,4.94,0,0,0,2.51.69H62.56a4.94,4.94,0,0,0,2.51-.69Z" transform="translate(-11.92 -2.53)"/><path class="cls-3" d="M12.64,22.08,14,20.82H26.15l2,2.15,2.91-2H75.54l1.52,1.39v36l-1.65,2H30.82L28.49,58l-1.9,1.9H13.65l-1.17-1.17V48.23S12.45,21.89,12.64,22.08Z" transform="translate(-11.92 -2.53)"/><path class="cls-2" d="M73,55.12H64.84a1,1,0,0,0,0,1.94H73a1,1,0,0,0,0-1.94Z" transform="translate(-11.92 -2.53)"/><path class="cls-2" d="M73,51.48H68.62a1,1,0,0,0-1.06.89,1,1,0,0,0,.88,1.05H73a1,1,0,0,0,.21-1.94Z" transform="translate(-11.92 -2.53)"/><path class="cls-2" d="M54.43,42.52v2.84c0,1.86,1.22,2.52,2.8,2.52S60,47.22,60,45.36V42.52C60,40.68,58.8,40,57.23,40S54.43,40.68,54.43,42.52Zm1.71,0a1,1,0,0,1,.8-1.07,1.33,1.33,0,0,1,1.37.8,1,1,0,0,1,0,.24v2.84a1,1,0,0,1-.87,1.06h0a.45.45,0,0,1-.23,0,.94.94,0,0,1-1.08-.79h0a1,1,0,0,1,0-.25Z" transform="translate(-11.92 -2.53)"/><path class="cls-2" d="M56.28,32.73a.8.8,0,0,0-.71.42l-7,14.27a.81.81,0,0,0,.31,1.09.8.8,0,0,0,.5.1.79.79,0,0,0,.8-.43L57.2,34a.73.73,0,0,0,.08-.36A1,1,0,0,0,56.28,32.73Z" transform="translate(-11.92 -2.53)"/><path class="cls-2" d="M48.41,33.52c-1.61,0-2.81.68-2.81,2.52v2.84c0,1.84,1.22,2.53,2.81,2.53s2.78-.69,2.78-2.53V36C51.19,34.18,50,33.52,48.41,33.52Zm1.11,5.36a1.12,1.12,0,0,1-1.19,1h0a1.11,1.11,0,0,1-1-1V36a1.11,1.11,0,0,1,2.22,0Z" transform="translate(-11.92 -2.53)"/><path class="cls-4" d="M52.82,27.06A13.52,13.52,0,0,0,45,29.56a1,1,0,0,0-.23,1.34h0a1,1,0,0,0,1.35.23A11.48,11.48,0,0,1,52.84,29a11.62,11.62,0,1,1-9.66,5.12A1,1,0,0,0,41.57,33a13.58,13.58,0,1,0,11.27-6Z" transform="translate(-11.92 -2.53)"/><path class="cls-4" d="M31.78,20.24a4.24,4.24,0,0,0-3.26,1.53,4.2,4.2,0,0,0-3.26-1.53H14.56a2.63,2.63,0,0,0-2.64,2.61V43a1,1,0,1,0,1.94,0V22.91a.7.7,0,0,1,.7-.7h10.7a2.32,2.32,0,0,1,2.3,2.29V56.73a2.31,2.31,0,0,1-2.3,2.3H14.56a.7.7,0,0,1-.7-.68V47.5a1,1,0,1,0-1.94,0V58.35A2.61,2.61,0,0,0,14.51,61H25.26a4.19,4.19,0,0,0,3.26-1.54A4.29,4.29,0,0,0,31.78,61H75.44a2.64,2.64,0,0,0,2.64-2.62h0V22.91a2.62,2.62,0,0,0-2.62-2.63H31.78Zm43.66,1.93a.7.7,0,0,1,.7.7h0V58.35a.7.7,0,0,1-.7.7H31.78a2.29,2.29,0,0,1-2.28-2.29v0h0V24.46a2.29,2.29,0,0,1,2.28-2.29Z" transform="translate(-11.92 -2.53)"/><path class="cls-4" d="M42.32,51.19l-2.64-.81-.81-2.64a1.33,1.33,0,0,0-2.54,0l-.8,2.64-2.64.81A1.32,1.32,0,0,0,32,52.85h0a1.27,1.27,0,0,0,.9.87l2.64.81.81,2.64a1.32,1.32,0,0,0,2.53,0l.81-2.64,2.64-.81a1.32,1.32,0,0,0,.87-1.66,1.31,1.31,0,0,0-.87-.87ZM38.79,52.8a1.33,1.33,0,0,0-.87.87l-.34,1.08-.33-1.08a1.32,1.32,0,0,0-.88-.87l-1-.34,1.07-.33a1.3,1.3,0,0,0,.87-.88l.33-1.07L38,51.25a1.32,1.32,0,0,0,.87.88l1.07.33Z" transform="translate(-11.92 -2.53)"/><path class="cls-4" d="M69.48,15.27l-3.77-1.22-1.16-3.77a1.89,1.89,0,0,0-3.62,0l-1.18,3.77L56,15.26a1.89,1.89,0,0,0-1.25,2.37A1.87,1.87,0,0,0,56,18.87L59.75,20l1.18,3.77a1.89,1.89,0,0,0,3.62,0L65.71,20l3.77-1.16a1.89,1.89,0,0,0,1.25-2.37,1.87,1.87,0,0,0-1.25-1.24Zm-5,2.28a1.93,1.93,0,0,0-1.25,1.25l-.49,1.53-.48-1.53A1.89,1.89,0,0,0,61,17.55l-1.5-.47L61,16.6a1.88,1.88,0,0,0,1.25-1.25l.45-1.53.47,1.53a1.91,1.91,0,0,0,1.25,1.25l1.53.48Z" transform="translate(-11.92 -2.53)"/><path class="cls-2" d="M18.2,56.09a1,1,0,0,1-1-1V49.49a1,1,0,0,1,2.06,0v5.63A1,1,0,0,1,18.2,56.09Z" transform="translate(-11.92 -2.53)"/><path class="cls-2" d="M22.45,56.09a1,1,0,0,1-1-1V52.54a1,1,0,0,1,2,0h0v2.53A1,1,0,0,1,22.45,56.09Z" transform="translate(-11.92 -2.53)"/><path class="cls-2" d="M22.45,49a1,1,0,0,1-1-1h0v-2.5a1,1,0,1,1,2,0h0V48a1,1,0,0,1-1,1Z" transform="translate(-11.92 -2.53)"/><path class="cls-2" d="M26,31l-4-.8V27.42a3.27,3.27,0,0,0-.6-1.89.81.81,0,0,0-1.13-.16l-.15.16h0a3.39,3.39,0,0,0-.59,1.9v2.73l-4,.8a.81.81,0,0,0-.63.74v.54a.79.79,0,0,0,.81.74h3.87v3.08l-1.85.7a.74.74,0,0,0-.49.7v.6a.81.81,0,0,0,.8.75h1.55V39A1.25,1.25,0,1,0,22,39v-.14h1.55a.82.82,0,0,0,.81-.75v-.6a.76.76,0,0,0-.49-.7L22,36.05V33h3.87a.8.8,0,0,0,.81-.75v-.53A.82.82,0,0,0,26,31Z" transform="translate(-11.92 -2.53)"/></svg>