<svg id="Layer_1" data-name="Layer 1" xmlns="http://www.w3.org/2000/svg" xmlns:xlink="http://www.w3.org/1999/xlink" viewBox="0 0 76.65 84.73"><defs><style>.cls-1{opacity:0.5;fill:url(#radial-gradient);}.cls-2{opacity:0.8;}.cls-3{fill:#fff;}.cls-4{fill:#fbbc05;}.cls-5{fill:#0f4b81;}</style><radialGradient id="radial-gradient" cx="46.82" cy="91.78" r="29.8" gradientTransform="translate(-14.53 75.09) scale(1.14 0.07)" gradientUnits="userSpaceOnUse"><stop offset="0" stop-color="#545454" stop-opacity="0.7"/><stop offset="0.26" stop-color="#606060" stop-opacity="0.65"/><stop offset="0.52" stop-color="#848484" stop-opacity="0.51"/><stop offset="0.79" stop-color="#bfbfbf" stop-opacity="0.26"/><stop offset="1" stop-color="#fff" stop-opacity="0"/></radialGradient></defs><title>credit-card</title><ellipse class="cls-1" cx="39.04" cy="81.22" rx="37.61" ry="3.51"/><g class="cls-2"><rect class="cls-3" x="14.51" y="15.11" width="48.24" height="32.23" rx="2.6" transform="translate(-19.03 14.24) rotate(-24.27)"/><g id="Page-1"><path id="Shape" class="cls-4" d="M12.27,29.9A3.51,3.51,0,0,1,14,25.25h0L50.45,8.81a3.51,3.51,0,0,1,4.65,1.75v0h0l5.8,12.86L30.92,37a1.18,1.18,0,0,0-.59,1.56,1.19,1.19,0,0,0,1.56.59l30-13.53,1.93,4.28L21,49.18Zm7.52,22.4a5.87,5.87,0,0,0,7.77,2.93L64,38.81A5.87,5.87,0,0,0,66.92,31h0L57.26,9.62a5.87,5.87,0,0,0-7.77-2.94L13.07,23.1a5.87,5.87,0,0,0-2.94,7.77h0ZM63,36.66,26.59,53.09a3.51,3.51,0,0,1-4.65-1.74h0L64.78,32A3.51,3.51,0,0,1,63,36.67h0Z" transform="translate(-9.61 -4.4)"/><path class="cls-4" d="M21.47,28.17l3.21-1.45a1.18,1.18,0,0,0-1-2.15h0L20.51,26a1.18,1.18,0,0,0,1,2.15Z" transform="translate(-9.61 -4.4)"/><path class="cls-4" d="M48.39,16l3.22-1.46a1.17,1.17,0,1,0-1-2.14l-3.21,1.45a1.18,1.18,0,0,0,1,2.15Z" transform="translate(-9.61 -4.4)"/><path class="cls-4" d="M28.87,27.41,17.09,32.72A1.18,1.18,0,0,0,18,34.83l11.78-5.31A1.17,1.17,0,0,0,30.56,28a1.18,1.18,0,0,0-1.49-.74h0l-.19.09Z" transform="translate(-9.61 -4.4)"/></g></g><rect class="cls-3" x="7.92" y="1.79" width="48.24" height="32.23" rx="2.6"/><g id="Page-1-2" data-name="Page-1"><path id="Shape-2" data-name="Shape" class="cls-4" d="M65.16,10.27v14.1H32.26a1.18,1.18,0,0,0,0,2.36h32.9v4.69h-47V26.73H24a1.18,1.18,0,0,0,0-2.36H18.16V10.27a3.51,3.51,0,0,1,3.49-3.53h40a3.52,3.52,0,0,1,3.52,3.5v0ZM15.81,33.78a5.87,5.87,0,0,0,5.87,5.87h40a5.87,5.87,0,0,0,5.87-5.87h0V10.27A5.87,5.87,0,0,0,61.64,4.4h-40a5.87,5.87,0,0,0-5.87,5.87h0ZM61.64,37.3h-40a3.52,3.52,0,0,1-3.52-3.51h47a3.51,3.51,0,0,1-3.5,3.52h0Z" transform="translate(-9.61 -4.4)"/><path class="cls-4" d="M21.39,12.47h1.18a1.18,1.18,0,0,0,0-2.35H21.39a1.18,1.18,0,0,0,0,2.35Z" transform="translate(-9.61 -4.4)"/><path class="cls-4" d="M27.27,12.47h3.52a1.18,1.18,0,0,0,0-2.35H27.27a1.18,1.18,0,1,0,0,2.35Z" transform="translate(-9.61 -4.4)"/><path class="cls-4" d="M56.8,12.47h3.52a1.18,1.18,0,1,0,0-2.35H56.8a1.18,1.18,0,0,0,0,2.35Z" transform="translate(-9.61 -4.4)"/><path class="cls-4" d="M34.32,14.83H21.39a1.18,1.18,0,0,0,0,2.31H34.32a1.18,1.18,0,1,0,.22-2.34h-.22Z" transform="translate(-9.61 -4.4)"/></g><polygon class="cls-3" points="58.08 11.4 65.87 17.79 69.96 26.39 69.59 72.49 45.74 71.98 45.59 58.85 43.11 54.26 42.24 47.98 42.24 42.15 44.43 39.01 37.28 31.79 31.66 24.28 32.24 20.85 36.26 17.57 39.17 17.57 42.31 20.41 50.55 29.82 54.13 32.67 56.68 34.42 62.44 32.23 63.25 27.41 61.2 21.14 58.08 11.4"/><path class="cls-5" d="M75.34,20.66,67.51,12.8v8.32l3.7,9.67a4,4,0,0,1-2.27,5.11l-2.28.88-.1.12-3.17-3.16h0l-11-11a7,7,0,0,0-10.15,9.72L52.57,43.73s-.74,1.23-.94,1.66c-2.29,4.93-1.53,11.85,1.64,16.92L54,63.52V76.33a1.32,1.32,0,0,0,1.32,1.31H79.08a1.31,1.31,0,0,0,1.31-1.31V32.81A17.22,17.22,0,0,0,75.34,20.66ZM77.76,75H56.67V64.46H77.76Zm0-13.18H56.08l-.57-.92A16.44,16.44,0,0,1,55.17,44,1.31,1.31,0,0,0,55,42.48L44.2,30.7a4.4,4.4,0,0,1,6.35-6.08l21,21,1.87-1.86-4.88-4.88,1.35-.53a6.58,6.58,0,0,0,3.78-8.51L69.21,18.25l4.27,4.28a14.59,14.59,0,0,1,4.28,10.28Z" transform="translate(-9.61 -4.4)"/><circle class="cls-5" cx="50.94" cy="65.78" r="1.56"/></svg>