<svg id="Layer_1" data-name="Layer 1" xmlns="http://www.w3.org/2000/svg" xmlns:xlink="http://www.w3.org/1999/xlink" viewBox="0 0 65.75 86.18"><defs><style>.cls-1{opacity:0.5;fill:url(#radial-gradient);}.cls-2{fill:#0f4b81;}.cls-3{fill:#fbbc05;}</style><radialGradient id="radial-gradient" cx="41.5" cy="348.31" r="29.8" gradientTransform="translate(-8.63 59.42) scale(1 0.07)" gradientUnits="userSpaceOnUse"><stop offset="0" stop-color="#545454" stop-opacity="0.7"/><stop offset="0.26" stop-color="#606060" stop-opacity="0.65"/><stop offset="0.52" stop-color="#848484" stop-opacity="0.51"/><stop offset="0.79" stop-color="#bfbfbf" stop-opacity="0.26"/><stop offset="1" stop-color="#fff" stop-opacity="0"/></radialGradient></defs><title>online-refund</title><ellipse class="cls-1" cx="32.87" cy="82.67" rx="32.87" ry="3.51"/><path class="cls-2" d="M18.74,80.91a5,5,0,0,0,5.06,5H59.2a5,5,0,0,0,5.06-5h0v-65a5,5,0,0,0-5.06-5H23.8a5,5,0,0,0-5.06,5h0Zm32.48-67.5-1.62,1.7a2.48,2.48,0,0,1-1.89.8H35.24a2.5,2.5,0,0,1-1.84-.8l-1.63-1.7Zm10.51,67.5a2.51,2.51,0,0,1-2.52,2.5H23.8a2.51,2.51,0,0,1-2.53-2.49h0V79a5,5,0,0,0,2.53.69H59.2A5,5,0,0,0,61.73,79Zm-40.46-65a2.5,2.5,0,0,1,2.52-2.5H28.3l3.25,3.42a5.08,5.08,0,0,0,3.69,1.58H47.75a5.12,5.12,0,0,0,3.7-1.58l3.24-3.42H59.2a2.51,2.51,0,0,1,2.53,2.49h0V74.68a2.51,2.51,0,0,1-2.52,2.5H23.8a2.51,2.51,0,0,1-2.53-2.49h0Z" transform="translate(-8.63 -10.91)"/><path class="cls-2" d="M47.47,57.77a.75.75,0,0,1-.62.13L41.5,56.56,36.15,57.9l-.17,0a.74.74,0,0,1-.75-.74V55.1a.74.74,0,0,1,.22-.52.63.63,0,0,1,.23-.16l3-1.31V48.66l-7.48.62a.79.79,0,0,1-.59-.21.75.75,0,0,1-.22-.53V45.78a.75.75,0,0,1,.22-.53.68.68,0,0,1,.28-.17l7.79-2.73V38.52a2.85,2.85,0,0,1,.83-2,2.81,2.81,0,0,1,4.8,2v3.83l7.79,2.73a.73.73,0,0,1,.5.7v2.76a.84.84,0,0,1-.22.53h0a.76.76,0,0,1-.59.21l-7.49-.62v4.45l3,1.31a.74.74,0,0,1,.45.68v2.08a.74.74,0,0,1-.22.52Zm-6.15-2.7a1.09,1.09,0,0,1,.36,0l4.6,1.16v-.64l-3-1.32a.73.73,0,0,1-.45-.68V47.85a.78.78,0,0,1,.21-.53.76.76,0,0,1,.59-.21l7.49.62V46.3l-7.8-2.73a.74.74,0,0,1-.49-.7V38.52a1.34,1.34,0,0,0-1.33-1.33,1.32,1.32,0,0,0-.94.39,1.33,1.33,0,0,0-.39.94v4.35a.75.75,0,0,1-.22.53.62.62,0,0,1-.28.17L31.88,46.3v1.43l7.48-.62a.76.76,0,0,1,.81.74v5.74a.75.75,0,0,1-.22.53.61.61,0,0,1-.23.15l-3,1.32v.63Z" transform="translate(-8.63 -10.91)"/><path class="cls-3" d="M41.5,31.71A16.08,16.08,0,1,0,57.58,47.79,16.09,16.09,0,0,0,41.5,31.71Zm0,2.54A13.52,13.52,0,0,1,50.85,38L30.1,55.07A13.52,13.52,0,0,1,41.5,34.25Zm0,27.08A13.49,13.49,0,0,1,31.63,57L52.48,39.89a13.52,13.52,0,0,1-11,21.44Z" transform="translate(-8.63 -10.91)"/></svg>