<svg id="Layer_1" data-name="Layer 1" xmlns="http://www.w3.org/2000/svg" xmlns:xlink="http://www.w3.org/1999/xlink" viewBox="0 0 66.15 88.16"><defs><style>.cls-1{opacity:0.5;fill:url(#radial-gradient);}.cls-2{fill:#0f4b81;}.cls-3{fill:#fbbc05;}</style><radialGradient id="radial-gradient" cx="45" cy="91.78" r="29.8" gradientTransform="translate(-11.72 78.53) scale(1 0.07)" gradientUnits="userSpaceOnUse"><stop offset="0" stop-color="#545454" stop-opacity="0.7"/><stop offset="0.26" stop-color="#606060" stop-opacity="0.65"/><stop offset="0.52" stop-color="#848484" stop-opacity="0.51"/><stop offset="0.79" stop-color="#bfbfbf" stop-opacity="0.26"/><stop offset="1" stop-color="#fff" stop-opacity="0"/></radialGradient></defs><title>secyrity-speed</title><ellipse class="cls-1" cx="33.28" cy="84.66" rx="32.87" ry="3.51"/><path class="cls-2" d="M45,77.56a1.19,1.19,0,0,1-.37-.06c-18.25-5.76-31-22.31-31-40.23V11a1.21,1.21,0,0,1,1.21-1.22H15a40.22,40.22,0,0,0,4.39.24C28.92,10,38.5,5.46,44.28,1.2a1.24,1.24,0,0,1,1.44,0C51.5,5.46,61.08,10,70.63,10A40.22,40.22,0,0,0,75,9.77h.13A1.21,1.21,0,0,1,76.36,11V37.27c0,17.92-12.74,34.47-31,40.23A1.19,1.19,0,0,1,45,77.56ZM16.07,37.27c0,16.67,11.86,32.2,28.84,37.77l.09,0,.09,0c17-5.57,28.84-21.1,28.84-37.77v-25l-.31,0c-1,.07-2,.11-3,.11-12.12,0-22.55-6.62-25.46-8.65L45,3.68l-.17.11c-2.91,2-13.34,8.65-25.46,8.65-1,0-2,0-3-.11l-.31,0Z" transform="translate(-11.72 -0.97)"/><path class="cls-3" d="M66.77,41A21.75,21.75,0,0,0,49.87,22V19.23A3.66,3.66,0,0,0,49,12H41.2a3.66,3.66,0,0,0-.88,7.22V22a21.73,21.73,0,0,0-12.43,7.87H20.14A1.08,1.08,0,0,0,20,32h6.47a21.82,21.82,0,0,0-1.9,4.14H12.8a1.08,1.08,0,0,0,0,2.16H23.92a20.6,20.6,0,0,0-.54,4.14H18.62a1.08,1.08,0,1,0,0,2.15h4.8a20.67,20.67,0,0,0,.67,4.14h-7a1.08,1.08,0,0,0,0,2.16h7.66A21.76,21.76,0,0,0,43,64.87c.71.07,1.42.11,2.13.11A21.86,21.86,0,0,0,57,61.47a1.09,1.09,0,0,0,.38-1.5,1.11,1.11,0,0,0-1.5-.38l-.08.06h0a19.61,19.61,0,1,1,5.77-5.78A1.09,1.09,0,0,0,63.39,55,21.84,21.84,0,0,0,66.77,41ZM39.71,15.68a1.51,1.51,0,0,1,1.49-1.51H49a1.51,1.51,0,1,1,0,3H41.2A1.52,1.52,0,0,1,39.71,15.68Zm2.76,5.93V19.34h5.22v2.27A21.7,21.7,0,0,0,42.47,21.61Z" transform="translate(-11.72 -0.97)"/><path class="cls-3" d="M59.75,56.75a1.08,1.08,0,1,0,1.1,1.08h0a1.14,1.14,0,0,0-.32-.76A1.08,1.08,0,0,0,59.75,56.75Z" transform="translate(-11.72 -0.97)"/><path class="cls-3" d="M45.12,26.49A16.72,16.72,0,1,0,61.83,43.21h0A16.73,16.73,0,0,0,45.12,26.49Zm0,31.27A14.58,14.58,0,1,1,59.7,43.18h0A14.58,14.58,0,0,1,45.12,57.76Z" transform="translate(-11.72 -0.97)"/><path class="cls-2" d="M51.93,34.87,46.6,40.2a3.35,3.35,0,0,0-3,0l-2.39-2.39a1.08,1.08,0,0,0-1.53,1.52l2.39,2.39a3.35,3.35,0,0,0,5.94,3.1.93.93,0,0,1,.05-.1,3.43,3.43,0,0,0,0-3l5.18-5.17h0l.15-.16a1.08,1.08,0,0,0,0-1.51h0A1.08,1.08,0,0,0,51.93,34.87Zm-6.81,9.5a1.2,1.2,0,1,1,0-2.39,1.19,1.19,0,0,1,1.2,1.19h0a1.2,1.2,0,0,1-1.17,1.22h0Z" transform="translate(-11.72 -0.97)"/><path class="cls-3" d="M56.64,42.14h-1a1.08,1.08,0,0,0,0,2.16h1a1.08,1.08,0,0,0,0-2.16Z" transform="translate(-11.72 -0.97)"/><path class="cls-3" d="M34.6,42.11h-1a1.08,1.08,0,0,0,0,2.16h1a1.08,1.08,0,1,0,0-2.16h0Z" transform="translate(-11.72 -0.97)"/><path class="cls-3" d="M45.13,33.76a1.07,1.07,0,0,0,1.08-1.07h0v-1a1.08,1.08,0,0,0-2.16,0v1a1.08,1.08,0,0,0,1.08,1.07Z" transform="translate(-11.72 -0.97)"/><path class="cls-3" d="M45.11,52.65A1.07,1.07,0,0,0,44,53.72v1a1.08,1.08,0,1,0,2.15,0v-1A1.06,1.06,0,0,0,45.11,52.65Z" transform="translate(-11.72 -0.97)"/><path class="cls-3" d="M12.8,48.77a1.08,1.08,0,1,0,1.08,1.08,1.08,1.08,0,0,0-1.08-1.08Z" transform="translate(-11.72 -0.97)"/></svg>