<svg id="Layer_1" data-name="Layer 1" xmlns="http://www.w3.org/2000/svg" xmlns:xlink="http://www.w3.org/1999/xlink" viewBox="0 0 74.04 88.7"><defs><style>.cls-1{opacity:0.5;fill:url(#radial-gradient);}.cls-2{fill:#0f4b81;}.cls-3{fill:#fbbc05;}</style><radialGradient id="radial-gradient" cx="45" cy="91.78" r="29.8" gradientTransform="translate(-7.98 79.07) scale(1 0.07)" gradientUnits="userSpaceOnUse"><stop offset="0" stop-color="#545454" stop-opacity="0.7"/><stop offset="0.26" stop-color="#606060" stop-opacity="0.65"/><stop offset="0.52" stop-color="#848484" stop-opacity="0.51"/><stop offset="0.79" stop-color="#bfbfbf" stop-opacity="0.26"/><stop offset="1" stop-color="#fff" stop-opacity="0"/></radialGradient></defs><title>support-team</title><ellipse class="cls-1" cx="37.02" cy="85.19" rx="32.87" ry="3.51"/><path class="cls-2" d="M79.48,39.31l-1.81-.9V34.88a32.88,32.88,0,0,0-4.15-16,2.72,2.72,0,0,0,0-3.11A34.54,34.54,0,0,0,57.15,2.71a1.13,1.13,0,0,0-1,2l.06,0h.09a31.58,31.58,0,0,1,6.95,3.71A32.19,32.19,0,0,1,71.65,17a.48.48,0,0,1-.08.66c-.17.14-3.95,3.68-4.17,3.83a.48.48,0,0,1-.29,0,.47.47,0,0,1-.37-.25A26,26,0,0,0,61.23,15,25.76,25.76,0,0,0,25,18.52a27.08,27.08,0,0,0-1.89,2.61.49.49,0,0,1-.36.23.53.53,0,0,1-.43-.15l-3.92-3.9a.5.5,0,0,1-.05-.66A32.3,32.3,0,0,1,51,3.24a1.13,1.13,0,0,0,.54-2.18.17.17,0,0,0-.1,0,34.54,34.54,0,0,0-35,14.33,2.7,2.7,0,0,0,.06,3.23,31.78,31.78,0,0,0-2.71,6,1.12,1.12,0,0,0,.67,1.43h0a1.5,1.5,0,0,0,.37.05,1.11,1.11,0,0,0,1.08-.69,31.68,31.68,0,0,1,2.26-5.09l2.39,2.37a27.73,27.73,0,0,0-2.9,12.42V58.66l-6.23-3a2.19,2.19,0,0,1-1.22-1.95V43.29a2.2,2.2,0,0,1,1.22-1.94c.38-.21,1.15-.54,1.8-.91a2.15,2.15,0,0,0,1.13-1.87V35.18a27.82,27.82,0,0,1,.29-4.37,1.14,1.14,0,0,0-1-1.27,1.12,1.12,0,0,0-1.27,1h0a31.91,31.91,0,0,0-.32,4.68v3.34c-.29.15-1.23.58-1.68.82A4.43,4.43,0,0,0,8,43.29v10.4a4.44,4.44,0,0,0,2.45,4L18,61.36a6,6,0,0,0,11.76-1.88V39.15a6,6,0,0,0-9.81-4.66,25.52,25.52,0,0,1,2.71-10.76H23a2.78,2.78,0,0,0,2-1.26,23.5,23.5,0,0,1,39.78.13,2.89,2.89,0,0,0,2,1.3,2.41,2.41,0,0,0,.38,0h.16A25.55,25.55,0,0,1,70,34.48a6,6,0,0,0-8.46.91,6.1,6.1,0,0,0-1.33,3.8v3.34a1.13,1.13,0,1,0,2.26,0V39.15a3.77,3.77,0,0,1,7.54,0h0V59.48a3.77,3.77,0,0,1-7.54,0h0V48.24a1.13,1.13,0,1,0-2.26,0V59.48a6,6,0,0,0,6,6A5.94,5.94,0,0,0,70,64.18v2.71a1.51,1.51,0,0,1-1.5,1.48H54.92a2.63,2.63,0,0,0-2.5-1.81h-8.5a2.63,2.63,0,0,0-2.56,2.63V75A2.63,2.63,0,0,0,44,77.6h8.55A2.66,2.66,0,0,0,55,75.79H68.34a1.13,1.13,0,0,0,0-2.26H55.11V70.66H68.48a3.75,3.75,0,0,0,3.73-3.74v-5.7l3-1.42v10a3.75,3.75,0,0,1-3.75,3.75h-3.5a1.13,1.13,0,1,0,0,2.26h3.51a6,6,0,0,0,6.08-6h0V58.66l2-1a4.43,4.43,0,0,0,2.47-4V43.29a4.46,4.46,0,0,0-2.47-4ZM23.67,35.39a3.77,3.77,0,0,1,3.77,3.77V59.48a3.77,3.77,0,1,1-7.54,0h0V39.15a3.76,3.76,0,0,1,3.76-3.76ZM43.56,75V69.19a.38.38,0,0,1,.38-.38h3.14v6.53H43.93a.36.36,0,0,1-.38-.34v0h0Zm9.3,0a.38.38,0,0,1-.37.37H49.33v-6.5h3.15a.37.37,0,0,1,.37.37h0ZM79.7,53.72a2.17,2.17,0,0,1-1.2,1.94l-6.26,3.06V35.21a27.7,27.7,0,0,0-2.85-12.36l2.47-2.28a30.58,30.58,0,0,1,3.61,14.32V38.6a2,2,0,0,0,1.1,1.81l2,1a2.21,2.21,0,0,1,1.21,1.94v10.4Z" transform="translate(-7.98 -0.43)"/><path class="cls-3" d="M55.11,35.39a2.21,2.21,0,0,0-1.46-2,2.08,2.08,0,0,0-2.28.91c-.9,1.06-5.19,8.88-6,10.43a1.12,1.12,0,0,0,0,1.12,1.09,1.09,0,0,0,1,.56h6.53v3.38a1.12,1.12,0,0,0,1.1,1.14h0a1.13,1.13,0,0,0,1.13-1.12h0V46.34h.85a1.13,1.13,0,0,0,0-2.26h-.83V35.39Zm-2.25,8.7H48.24C49.93,41,52.05,37.3,52.87,36c0,1.16,0,4.55,0,8Z" transform="translate(-7.98 -0.43)"/><path class="cls-3" d="M43.5,49.8a1.16,1.16,0,0,0-1.14-1.12H36.58c.85-1.11,2.24-3,4.36-6a9.49,9.49,0,0,0,1.91-4.52,5,5,0,0,0-10-.91,1.12,1.12,0,0,0,.94,1.28h0A1.13,1.13,0,0,0,35,37.65a2.78,2.78,0,0,1,5.52.47,7.6,7.6,0,0,1-1.5,3.35c-2.43,3.47-3.89,5.42-4.67,6.4-.9,1.21-1.21,1.58-1,2.24a1.19,1.19,0,0,0,.79.8c.78.2,5.63.09,8.14.08a1.14,1.14,0,0,0,1.19-1.07v-.06h0Z" transform="translate(-7.98 -0.43)"/></svg>