<svg id="Layer_1" data-name="Layer 1" xmlns="http://www.w3.org/2000/svg" xmlns:xlink="http://www.w3.org/1999/xlink" viewBox="0 0 67.71 86.6"><defs><style>.cls-1{opacity:0.5;fill:url(#radial-gradient);}.cls-2{fill:#0f4b81;}.cls-3{fill:#fff;}.cls-4{fill:#fbbc05;}.cls-5{fill:none;}</style><radialGradient id="radial-gradient" cx="45" cy="91.78" r="29.8" gradientTransform="translate(-11.14 76.96) scale(1 0.07)" gradientUnits="userSpaceOnUse"><stop offset="0" stop-color="#545454" stop-opacity="0.7"/><stop offset="0.26" stop-color="#606060" stop-opacity="0.65"/><stop offset="0.52" stop-color="#848484" stop-opacity="0.51"/><stop offset="0.79" stop-color="#bfbfbf" stop-opacity="0.26"/><stop offset="1" stop-color="#fff" stop-opacity="0"/></radialGradient></defs><title>ticket</title><ellipse class="cls-1" cx="33.86" cy="83.09" rx="32.87" ry="3.51"/><path class="cls-2" d="M64.32,27.52h.75v39A2.51,2.51,0,0,1,62.58,69H27.44a2.51,2.51,0,0,1-2.51-2.49v-59A2.53,2.53,0,0,1,27.44,5H32l3.21,3.43a5,5,0,0,0,3.66,1.59H51.21a5,5,0,0,0,3.61-1.59L58,5h4.52a2.53,2.53,0,0,1,2.51,2.51V36h2.5V7.54a5,5,0,0,0-5-5H27.44a5,5,0,0,0-5,5h0V72.75a5,5,0,0,0,5,5H62.56a5,5,0,0,0,5-5h0V27.52M54.63,5,53,6.74a2.52,2.52,0,0,1-1.8.79H38.79A2.52,2.52,0,0,1,37,6.74L35.38,5ZM65.05,72.75a2.52,2.52,0,0,1-2.51,2.51H27.44a2.52,2.52,0,0,1-2.51-2.51v-1.9a4.94,4.94,0,0,0,2.51.69H62.56a4.94,4.94,0,0,0,2.51-.69Z" transform="translate(-11.14 -2.53)"/><polygon class="cls-3" points="0.93 19.14 4.69 15.6 64.11 15.6 66.51 19.02 66.51 48.11 63.54 51.07 23.88 51.07 17.95 59.28 11.34 51.3 3.66 51.3 0.93 48.56 0.93 19.14"/><path class="cls-2" d="M60.05,49.4a2.11,2.11,0,0,1-2.11-2.1h0V40.67H54.06l-.9,3.42a2.11,2.11,0,0,1-2,1.55H48.76a2.12,2.12,0,0,1-2.1-2.11v-3l-.27-.1a3.34,3.34,0,0,1,0-6.32l.27-.09V31a2.11,2.11,0,0,1,2.1-2.11h2.41a2.1,2.1,0,0,1,2,1.6l.91,3.42H58V27.23a2.1,2.1,0,0,1,2.1-2.11h2.1a2.13,2.13,0,0,1,2,1.53l2.08,7.22h3.83a3.37,3.37,0,0,1,0,6.73H66.24l-2.07,7.22a2.15,2.15,0,0,1-2,1.54Zm-.4-1.7h2.79l2-7H59.65ZM48.36,43.93h3.11l.83-3.26H48.36Zm-.9-8.32a1.65,1.65,0,0,0,0,3.3H70a1.65,1.65,0,1,0,0-3.3H47.46ZM59.65,33.9h4.81l-2-7.07H59.65Zm-11.29,0H52.3l-.83-3.31H48.36Z" transform="translate(-11.14 -2.53)"/><path class="cls-4" d="M18,28.36l.69-.33v.48a1.26,1.26,0,0,0,2.52,0V28l.69.35a1.25,1.25,0,0,0,1.68-.56A1.26,1.26,0,0,0,23,26.13L22.73,26l.26-.13a1.26,1.26,0,0,0-1.12-2.25h0l-.69.36v-.46a1.26,1.26,0,1,0-2.52,0V24L18,23.64a1.26,1.26,0,0,0-1.11,2.21l.27.12-.27.14A1.26,1.26,0,1,0,18,28.36Z" transform="translate(-11.14 -2.53)"/><path class="cls-4" d="M26.32,27.79a1.31,1.31,0,0,0,.72.63,1.28,1.28,0,0,0,1-.06l.7-.36v.48a1.26,1.26,0,1,0,2.51,0V28l.69.35A1.26,1.26,0,1,0,33,26.13h0L32.76,26l.26-.13a1.26,1.26,0,1,0-1.12-2.25h0l-.69.36v-.46a1.26,1.26,0,1,0-2.51,0V24l-.7-.35a1.26,1.26,0,0,0-1.12,2.25l.27.13-.27.13a1.22,1.22,0,0,0-.62.72,1.28,1.28,0,0,0,.06,1Z" transform="translate(-11.14 -2.53)"/><path class="cls-4" d="M43.62,24.16a1.18,1.18,0,0,0-.72-.63,1.31,1.31,0,0,0-1,.07l-.69.35v-.43a1.26,1.26,0,1,0-2.51,0V24l-.7-.35a1.27,1.27,0,0,0-1.68.58h0a1.21,1.21,0,0,0-.12.62,1.27,1.27,0,0,0,.68,1.05l.27.13-.27.13A1.26,1.26,0,0,0,38,28.4l.7-.35v.48a1.26,1.26,0,0,0,2.51,0V28l.69.35a1.27,1.27,0,1,0,1.12-2.27h0L42.78,26l.27-.12a1.26,1.26,0,0,0,.56-1.69Z" transform="translate(-11.14 -2.53)"/><path class="cls-2" d="M21.18,33.5H18.66a1.25,1.25,0,0,0-.21,2.5h2.73a1.25,1.25,0,0,0,1.31-1.19,1.27,1.27,0,0,0-1.12-1.31Z" transform="translate(-11.14 -2.53)"/><path class="cls-2" d="M37.47,33.5H26.19a1.25,1.25,0,0,0,0,2.5H37.47a1.25,1.25,0,0,0,.22-2.5h-.22Z" transform="translate(-11.14 -2.53)"/><path class="cls-2" d="M37.47,38.51H18.66a1.26,1.26,0,0,0,0,2.51H37.47a1.26,1.26,0,1,0,0-2.51Z" transform="translate(-11.14 -2.53)"/><path class="cls-2" d="M32.46,43.53H18.66A1.26,1.26,0,0,0,18.45,46h14a1.26,1.26,0,0,0,.22-2.51h-.22Z" transform="translate(-11.14 -2.53)"/><path class="cls-5" d="M73.85,19.71H16.15a2.49,2.49,0,0,0-2.5,2.5h0V49.8a2.51,2.51,0,0,0,2.5,2.51h10.3a1.26,1.26,0,1,1,0,2.51H25.13l3.43,4.81a.48.48,0,0,0,.69.11h0a.29.29,0,0,0,.11-.11l3.43-4.8H31.47a1.26,1.26,0,1,1,0-2.51H73.85a2.53,2.53,0,0,0,2.51-2.51V22.22a2.5,2.5,0,0,0-2.5-2.51S73.85,19.7,73.85,19.71Z" transform="translate(-11.14 -2.53)"/><path class="cls-4" d="M16.15,17.19a5,5,0,0,0-5,5V49.8a5,5,0,0,0,5,5h5.9l4.47,6.27a3,3,0,0,0,4.19.69h0a3.13,3.13,0,0,0,.68-.68l4.52-6.27H73.85a5,5,0,0,0,5-5v0h0V22.22a5,5,0,0,0-5-5H16.15ZM76.36,49.8a2.53,2.53,0,0,1-2.51,2.51H31.47a1.26,1.26,0,1,0,0,2.51h1.32l-3.43,4.81a.48.48,0,0,1-.69.11h0a.29.29,0,0,1-.11-.11l-3.43-4.8h1.32a1.26,1.26,0,1,0,0-2.51H16.15a2.51,2.51,0,0,1-2.5-2.51V22.22a2.5,2.5,0,0,1,2.5-2.51h57.7a2.5,2.5,0,0,1,2.51,2.49V49.8Z" transform="translate(-11.14 -2.53)"/></svg>